<?xml version="1.0" standalone="no"?>
<!DOCTYPE svg PUBLIC "-//W3C//DTD SVG 20010904//EN"
 "http://www.w3.org/TR/2001/REC-SVG-20010904/DTD/svg10.dtd">
<svg version="1.0" xmlns="http://www.w3.org/2000/svg"
 width="1934.000000pt" height="1826.000000pt" viewBox="0 0 1934.000000 1826.000000"
 preserveAspectRatio="xMidYMid meet">

<g transform="translate(0.000000,1826.000000) scale(0.100000,-0.100000)"
fill="#000000" stroke="none">
<path d="M0 9130 l0 -9130 9670 0 9670 0 0 9130 0 9130 -9670 0 -9670 0 0
-9130z m15606 6548 c-2 -10 0 -21 5 -24 5 -3 7 -10 4 -15 -4 -5 -1 -9 4 -9 6
0 10 -6 9 -12 -2 -7 2 -12 8 -11 6 1 10 -8 10 -20 -1 -14 4 -21 13 -19 7 1 19
-2 26 -8 11 -9 13 -6 9 12 -2 13 -2 17 2 11 9 -20 23 -15 19 6 -3 14 1 18 16
14 14 -4 18 -1 14 9 -4 9 0 15 10 15 8 0 15 -4 15 -8 0 -3 9 -9 20 -12 14 -4
18 -10 13 -23 -4 -10 -2 -15 4 -11 5 3 10 1 11 -6 4 -47 23 -87 40 -87 15 0
15 -2 2 -10 -13 -9 -13 -10 0 -10 12 0 16 -15 18 -65 2 -40 -1 -65 -7 -65 -7
0 -9 -14 -5 -37 4 -21 6 -45 5 -53 -5 -39 0 -95 8 -103 5 -5 8 -15 6 -21 -2
-6 -6 -23 -9 -37 -5 -22 -10 -25 -31 -21 -14 2 -25 9 -25 15 0 6 -3 7 -7 4 -3
-4 -16 -1 -27 6 -12 8 -39 20 -61 27 -22 7 -58 22 -80 33 -42 21 -158 47 -212
47 -18 0 -52 7 -75 14 -24 8 -56 17 -73 20 -37 6 -205 28 -222 29 -7 0 -13 4
-13 9 0 5 -5 6 -10 3 -6 -4 -22 -8 -36 -11 -14 -3 -49 -20 -77 -39 -59 -40
-71 -42 -89 -17 -7 9 -26 24 -43 32 -16 8 -31 15 -33 16 -11 6 -11 67 0 86 7
13 11 26 10 31 -1 4 1 6 5 5 5 -2 9 0 11 4 2 4 9 20 17 35 8 14 12 30 10 33
-3 4 10 7 28 7 21 -1 31 4 29 12 -1 7 2 10 8 6 5 -3 20 1 32 9 27 19 52 21 42
4 -5 -8 0 -7 11 2 12 9 16 10 11 2 -6 -9 -1 -11 18 -8 19 3 26 0 27 -12 0 -13
2 -12 9 4 5 12 14 25 21 30 8 5 10 3 5 -7 -4 -8 -1 -6 7 3 8 10 16 15 19 12 3
-3 15 6 26 20 11 15 25 26 32 26 6 0 8 5 5 10 -3 6 0 10 8 10 8 0 17 7 21 15
3 8 9 14 13 13 9 -3 55 21 63 32 8 12 97 28 111 20 14 -9 58 8 77 30 8 8 11 9
7 3 -9 -19 6 -16 20 4 11 14 16 15 28 5 10 -9 17 -10 22 -2 3 6 10 8 15 5 4
-3 13 2 20 10 6 7 19 11 27 8 12 -5 14 -2 9 8 -4 8 0 5 9 -6 9 -11 14 -28 11
-37z m-759 -214 c-3 -3 -12 -4 -19 -1 -8 3 -5 6 6 6 11 1 17 -2 13 -5z m105
-646 c38 -74 57 -125 50 -132 -2 -3 -1 -13 3 -23 5 -10 7 -22 6 -28 -2 -5 1
-7 5 -3 4 4 12 3 19 -2 6 -5 21 -11 33 -13 12 -2 25 -6 28 -10 4 -4 15 -7 24
-7 9 0 28 -9 41 -21 43 -38 87 -49 163 -45 39 3 89 12 111 20 22 8 54 15 71
16 17 0 59 12 95 26 107 44 225 39 275 -11 9 -8 12 -15 8 -15 -4 0 1 -9 12
-21 16 -17 19 -37 19 -117 0 -67 -4 -97 -13 -100 -7 -2 -10 -7 -7 -12 2 -4 -7
-20 -21 -35 -14 -15 -27 -37 -29 -47 -2 -11 -7 -28 -10 -38 -3 -10 -8 -28 -10
-40 -8 -41 -18 -65 -37 -90 -11 -14 -22 -24 -24 -22 -23 14 -53 -31 -59 -88
-1 -14 -3 -25 -4 -25 -3 0 -10 -35 -13 -62 -1 -12 -5 -20 -9 -17 -4 2 -27 -3
-51 -12 -24 -9 -54 -17 -68 -18 -14 -1 -30 -5 -37 -9 -15 -10 -64 13 -56 26 4
6 1 7 -7 2 -10 -6 -9 -11 6 -23 18 -13 17 -14 -11 -7 -16 3 -33 12 -37 18 -6
9 -8 9 -8 0 0 -7 8 -17 18 -22 9 -6 13 -11 9 -11 -16 0 -56 37 -49 45 4 5 2 5
-5 1 -6 -3 -15 -1 -18 5 -4 5 -13 8 -21 5 -8 -3 -14 -1 -14 4 0 11 -59 2 -76
-11 -6 -5 -26 -6 -45 -2 -19 3 -78 6 -131 7 -103 1 -131 12 -104 39 8 8 17 21
18 28 2 8 9 20 16 27 7 8 9 18 6 24 -4 6 -2 8 3 5 6 -4 23 3 37 14 15 12 40
22 57 23 16 0 29 4 29 8 0 4 9 10 20 13 12 4 17 11 14 18 -4 7 -4 9 1 5 12
-12 64 24 67 46 4 22 -22 106 -33 106 -3 0 -19 12 -35 26 -86 77 -201 96 -292
50 -70 -36 -120 -35 -156 3 -40 42 -37 91 17 243 40 110 55 156 63 195 1 7 12
26 24 43 12 17 26 46 31 65 7 23 17 35 32 38 12 2 23 5 24 6 2 0 17 -27 35
-61z m1540 -380 c10 -12 21 -32 24 -44 11 -42 -34 -144 -63 -144 -8 0 -20 -13
-26 -29 -9 -21 -17 -27 -26 -22 -17 11 -19 133 -2 193 12 43 28 59 70 67 2 1
12 -9 23 -21z m-130 -357 c4 -24 3 -54 -3 -69 -6 -15 -10 -29 -10 -32 1 -9
-10 -45 -26 -83 -12 -26 -27 -43 -50 -52 -35 -15 -55 -12 -88 14 -23 19 -27
30 -30 86 -4 52 13 82 66 125 24 19 46 38 47 42 2 4 10 8 18 8 8 0 14 4 14 9
0 5 12 6 27 2 23 -6 29 -15 35 -50z m-897 -291 c-3 -5 -14 -10 -23 -9 -14 0
-13 2 3 9 27 11 27 11 20 0z m-271 -316 c19 -19 20 -26 4 -42 -7 -7 -8 -12 -2
-12 5 0 10 -21 12 -47 2 -27 11 -56 20 -67 13 -15 14 -18 2 -12 -9 4 -8 2 3
-7 19 -16 23 -42 7 -52 -6 -4 -7 -11 -4 -17 4 -6 2 -8 -3 -5 -6 4 -14 0 -17
-9 -3 -8 -10 -12 -16 -9 -5 3 -10 1 -10 -4 0 -6 -6 -11 -14 -11 -8 0 -16 -6
-19 -14 -3 -7 -27 -26 -53 -41 -40 -23 -60 -28 -114 -28 -93 0 -144 30 -136
80 2 15 5 33 5 40 1 6 10 15 21 18 11 3 20 13 20 21 0 8 7 14 16 14 9 0 28 6
42 14 27 15 61 29 74 30 3 1 10 4 14 9 4 4 14 7 21 7 8 0 21 7 30 15 8 8 19
13 24 10 5 -4 9 -1 9 4 0 13 41 15 56 4 6 -5 -5 6 -24 24 -28 27 -32 35 -23
52 6 11 11 24 10 28 -5 28 21 32 45 7z m-9508 -766 c31 -22 60 -53 81 -90 37
-63 79 -94 141 -104 36 -6 49 -2 85 21 23 15 51 36 62 46 21 18 68 28 172 36
46 4 78 -1 122 -16 70 -24 107 -33 141 -33 14 1 57 1 95 1 39 1 79 0 90 0 25
-2 55 -27 55 -47 0 -9 3 -13 6 -9 3 3 21 -9 39 -26 40 -40 46 -42 122 -40 57
1 137 27 193 63 8 6 25 15 38 22 12 6 22 16 22 22 1 6 8 20 18 31 47 55 137
66 233 28 85 -34 214 -129 349 -258 44 -41 92 -127 170 -299 18 -38 56 -106
85 -150 76 -116 113 -210 116 -298 3 -64 -40 -276 -66 -328 -13 -25 -26 -56
-30 -70 -4 -14 -14 -33 -23 -42 -8 -10 -12 -18 -7 -18 4 0 1 -7 -6 -16 -8 -9
-14 -24 -14 -33 0 -12 -9 -16 -33 -15 -24 1 -32 -3 -28 -13 3 -7 -1 -13 -10
-13 -8 0 -12 5 -9 10 3 6 -5 10 -18 10 -25 0 -44 -34 -26 -46 5 -3 7 -10 4
-15 -4 -5 1 -16 9 -25 9 -8 16 -22 16 -30 0 -8 5 -14 11 -14 8 0 9 -4 0 -13
-6 -8 -8 -17 -4 -21 4 -3 8 -12 10 -19 1 -7 14 -49 27 -94 14 -45 23 -94 20
-110 -10 -53 -85 -92 -249 -128 -38 -8 -77 -17 -85 -19 -57 -14 -159 -18 -409
-18 -266 0 -290 2 -341 21 -30 12 -68 21 -84 21 -67 0 -156 -92 -181 -186 -21
-79 -19 -108 12 -189 23 -62 27 -85 27 -195 1 -117 3 -129 29 -178 25 -47 111
-170 150 -214 15 -16 54 -82 84 -140 7 -14 25 -33 39 -42 13 -9 22 -21 19 -26
-4 -6 -3 -10 2 -10 4 0 16 -12 26 -26 10 -13 15 -24 10 -23 -4 1 -21 -3 -38
-10 -16 -7 -59 -17 -94 -22 -113 -16 -103 -12 -234 -107 -39 -29 -73 -23 -142
23 -76 51 -101 58 -212 59 -88 0 -106 -3 -130 -20 -46 -35 -66 -81 -59 -140 6
-51 58 -168 70 -157 3 4 6 -4 6 -16 0 -12 4 -20 9 -16 6 3 10 -3 10 -12 1 -66
7 -78 40 -87 30 -9 36 -7 57 17 13 15 28 27 34 27 6 0 9 4 5 9 -3 6 3 14 12
20 10 6 14 11 8 11 -26 1 103 52 153 61 112 19 279 5 417 -35 58 -17 125 -27
122 -17 0 3 4 15 10 26 11 20 13 27 13 43 0 5 8 17 18 28 76 84 99 136 91 203
-9 68 -51 114 -118 132 -43 11 -46 14 -48 46 -1 21 -19 61 -44 101 l-42 67 0
97 c1 106 -6 143 -60 290 -20 53 -34 102 -33 110 12 67 46 88 114 69 26 -7 85
-15 131 -18 94 -5 109 -13 179 -97 20 -25 55 -54 78 -65 69 -35 185 -24 199
19 3 9 19 29 35 44 37 32 81 34 123 4 78 -56 116 -55 192 5 85 66 102 75 162
81 l62 6 7 -36 c3 -19 3 -54 -1 -77 -4 -23 -9 -58 -12 -77 -3 -19 -18 -67 -33
-107 -16 -40 -26 -73 -23 -73 3 0 0 -7 -7 -15 -7 -8 -9 -15 -4 -15 5 0 10 -15
10 -33 1 -17 6 -56 11 -84 6 -32 6 -53 1 -53 -5 0 -7 -4 -4 -9 6 -9 -78 -181
-93 -191 -4 -3 -7 -13 -5 -24 1 -10 -2 -30 -7 -45 -6 -14 -11 -93 -11 -176 0
-94 -4 -152 -11 -157 -6 -3 -12 -24 -13 -45 -1 -21 -2 -39 -3 -40 -1 -2 -1 -5
-1 -8 1 -3 -6 -13 -15 -21 -8 -9 -13 -20 -10 -25 4 -5 2 -9 -4 -9 -15 0 -26
-36 -40 -140 -15 -107 -62 -188 -100 -174 -8 2 -18 -1 -23 -8 -5 -9 -8 -5 -8
12 0 14 -6 34 -14 45 -11 17 -23 51 -32 91 -8 41 -88 81 -171 89 -31 2 -60 9
-67 14 -14 11 -156 33 -156 24 0 -2 16 -20 35 -40 20 -20 32 -39 28 -42 -5 -3
-10 -15 -11 -26 -5 -26 0 -22 -67 -46 -42 -14 -84 -20 -157 -21 -118 0 -225
-20 -288 -53 -118 -61 -202 -69 -310 -28 -34 12 -70 16 -150 13 -272 -8 -267
-8 -300 26 -20 22 -27 38 -23 53 3 11 8 21 12 21 9 0 12 39 6 68 -3 13 -9 20
-14 17 -5 -2 -11 2 -15 10 -7 18 -47 20 -64 3 -7 -7 -12 -9 -12 -5 0 4 -10 -2
-22 -13 -13 -12 -32 -29 -43 -39 -11 -10 -41 -24 -67 -31 -27 -7 -48 -17 -48
-21 0 -5 -3 -8 -7 -7 -15 4 -53 -23 -53 -37 0 -8 -4 -15 -9 -15 -16 0 -47
-115 -33 -124 4 -2 9 -35 10 -73 3 -66 1 -70 -23 -81 -38 -18 -88 16 -105 71
-8 23 -18 51 -24 62 -5 11 -11 26 -12 33 -1 8 -9 21 -17 30 -7 10 -19 32 -27
49 -7 18 -16 30 -21 27 -5 -3 -9 2 -9 10 0 9 -4 16 -8 16 -5 0 -15 12 -23 28
-15 28 -24 42 -48 68 -8 9 -15 32 -17 52 -1 20 -8 38 -13 40 -6 2 -8 8 -5 13
3 6 0 16 -6 24 -7 8 -9 15 -5 15 4 0 2 7 -5 15 -7 8 -9 15 -6 15 4 0 2 8 -3
18 -5 10 -12 40 -16 67 -3 26 -9 53 -12 59 -8 11 -12 28 -15 58 -1 9 -6 14
-10 12 -4 -3 -8 -1 -8 3 0 17 -77 96 -87 90 -13 -8 -45 65 -50 113 -7 77 -15
97 -56 152 -23 31 -50 72 -61 90 -64 113 -91 170 -102 223 -11 52 -10 63 4 87
9 16 20 28 23 28 4 0 23 15 42 33 28 26 34 38 31 62 -15 103 -13 123 9 129 47
12 105 -17 137 -69 29 -47 26 -85 -10 -122 -20 -20 -27 -34 -20 -38 6 -4 9
-13 6 -21 -8 -20 57 -65 103 -71 30 -4 48 0 74 16 41 25 87 88 87 120 0 12 7
35 15 50 13 26 17 28 52 21 21 -4 51 -13 66 -19 35 -14 120 -14 166 -1 19 5
49 24 67 41 26 25 34 43 40 85 3 29 13 59 21 65 9 8 57 13 131 14 64 1 146 5
182 9 49 6 72 4 92 -6 22 -12 25 -17 15 -28 -9 -10 -9 -11 1 -6 6 4 12 5 12 2
0 -6 -26 -77 -45 -121 -36 -86 -47 -153 -35 -215 5 -25 12 -57 14 -72 3 -15 8
-33 12 -39 4 -7 9 -37 11 -68 2 -31 5 -65 7 -76 3 -11 5 -23 5 -27 2 -17 23
-6 56 28 19 20 35 42 35 50 0 8 14 45 31 82 42 92 81 250 72 293 -9 48 -37 97
-81 146 -22 23 -36 44 -33 45 14 7 54 145 52 180 -5 96 -81 173 -211 214 -57
18 -87 20 -255 18 -149 -1 -209 -6 -278 -22 -109 -25 -170 -22 -267 13 -64 23
-94 28 -203 31 -147 4 -158 9 -165 83 -3 34 2 61 15 92 11 24 18 63 17 87 -1
23 3 42 7 42 5 0 9 5 9 11 0 5 -5 7 -12 3 -8 -5 -9 -2 -5 9 3 10 3 17 -1 17
-4 0 -8 11 -8 25 -1 14 2 22 7 19 5 -3 6 2 3 10 -3 9 -11 13 -17 9 -6 -4 -8 0
-4 10 3 9 1 17 -4 19 -5 2 -11 13 -12 25 0 12 -4 20 -8 17 -4 -2 -10 0 -14 6
-3 5 0 10 7 10 8 1 7 4 -4 10 -9 6 -19 23 -23 39 -8 38 -17 91 -18 114 -1 9
-5 17 -9 17 -4 0 -8 9 -8 20 0 11 -4 20 -8 20 -5 0 -9 6 -9 13 -1 6 -8 55 -16
107 -11 74 -13 130 -7 250 5 85 11 166 13 180 3 14 8 55 12 92 9 90 25 141 86
261 63 126 80 148 199 267 132 133 203 189 293 234 149 73 213 81 283 34z
m10014 2 c3 -1 8 -2 13 -1 4 0 6 -2 6 -6 -3 -21 2 -33 13 -27 7 5 8 3 4 -5 -5
-7 0 -21 9 -31 21 -24 12 -96 -14 -109 -9 -6 -22 -25 -28 -43 -34 -105 -78
-216 -94 -240 -11 -14 -19 -31 -19 -37 0 -6 -4 -11 -10 -11 -5 0 -17 -15 -26
-32 -9 -18 -36 -55 -59 -83 -23 -27 -49 -63 -58 -80 -8 -16 -28 -43 -45 -58
-25 -24 -33 -26 -55 -18 -28 11 -65 74 -88 149 -12 41 -37 71 -126 147 -24 21
-44 49 -48 66 -4 16 -11 29 -16 29 -6 0 -8 4 -4 9 3 5 1 12 -5 16 -5 3 -10 0
-10 -7 0 -7 -6 -4 -12 7 -6 11 -18 26 -26 33 -11 9 -12 12 -3 12 11 0 11 3 1
15 -10 12 -7 13 19 5 17 -5 31 -6 31 -3 0 3 7 -1 16 -8 9 -7 21 -14 28 -15 30
-7 53 -13 70 -20 15 -6 18 -4 12 7 -4 8 -1 6 8 -5 8 -10 19 -15 24 -12 5 3 16
-2 23 -12 13 -16 12 -16 -6 -3 -11 7 -7 2 9 -13 23 -22 31 -25 43 -15 12 10
16 10 24 -2 6 -10 9 -10 9 -1 0 6 9 12 21 12 11 0 18 4 15 8 -3 5 9 24 27 42
18 19 25 30 17 25 -9 -5 -12 -5 -7 1 5 5 13 9 18 9 16 0 79 54 129 111 14 16
35 35 47 43 18 12 35 46 35 71 0 3 4 11 10 18 6 6 7 12 4 12 -4 0 2 10 14 22
11 12 20 25 20 29 0 6 23 5 40 -1z m-6950 -890 c-13 -9 -13 -10 0 -10 13 0 13
-1 0 -10 -12 -8 -12 -10 -1 -10 10 0 11 -3 2 -14 -9 -10 -20 -12 -41 -6 -16 4
-31 5 -35 2 -3 -4 -3 2 1 12 5 12 9 14 14 6 6 -9 9 -9 16 1 4 8 2 15 -5 17
-20 7 8 22 39 22 20 0 22 -2 10 -10z m275 -407 c6 -8 21 -15 33 -16 18 -1 22
-6 20 -27 -3 -28 -12 -41 -46 -73 -28 -26 -41 -28 -64 -9 -9 7 -18 9 -21 5
-11 -18 -137 9 -137 29 0 5 -4 7 -9 4 -5 -3 -11 3 -14 14 -3 13 -1 18 6 13 9
-5 9 -3 0 8 -16 20 0 43 26 36 12 -3 19 -1 15 4 -3 5 7 9 21 9 14 0 24 3 22 8
-3 4 27 7 66 8 51 0 75 -3 82 -13z m-49 -459 c-4 -26 -21 -20 -22 8 -1 21 2
26 12 18 6 -6 11 -18 10 -26z m-251 -459 c31 -32 50 -75 25 -60 -5 3 -10 -2
-10 -12 0 -23 -59 -105 -70 -98 -4 2 -15 -4 -25 -15 -18 -20 -18 -20 -37 2
-10 12 -16 28 -14 37 2 9 9 39 16 66 7 28 13 55 15 60 1 6 2 13 1 17 -1 10 36
37 51 38 7 0 28 -16 48 -35z m-4184 -33 c24 -26 69 -127 69 -154 0 -28 -19
-80 -20 -54 0 5 -6 3 -13 -3 -20 -16 -99 -16 -125 0 -30 19 -50 85 -43 145 0
5 17 27 36 48 29 32 39 37 62 31 16 -3 31 -9 34 -13z m-29 -459 c18 -9 52 -37
75 -62 40 -45 42 -50 47 -126 7 -101 10 -117 46 -245 16 -58 32 -120 35 -139
11 -54 -4 -135 -33 -180 -24 -37 -30 -41 -56 -35 -17 4 -39 17 -49 30 -10 13
-24 30 -31 37 -7 7 -19 23 -25 36 -7 13 -37 57 -67 99 -80 112 -80 113 -66
420 8 175 10 182 64 182 15 0 42 -7 60 -17z m4185 -43 c12 -10 19 -20 16 -24
-3 -3 -1 -6 6 -6 7 0 9 -4 6 -10 -3 -5 -1 -10 4 -10 6 0 11 -9 11 -20 0 -11 4
-20 8 -20 5 0 8 -25 9 -55 0 -51 -2 -57 -29 -73 -15 -9 -27 -21 -24 -27 2 -6
-5 -12 -15 -12 -11 -1 -19 5 -19 13 0 8 -4 14 -9 14 -32 0 -65 84 -62 153 4
82 47 116 98 77z m-1781 -2013 c11 -3 90 -8 175 -12 196 -8 272 -14 282 -24
22 -22 16 -56 -18 -88 -61 -57 -112 -76 -220 -78 -123 -3 -217 -16 -345 -47
-111 -27 -135 -30 -214 -24 -50 4 -96 12 -103 18 -7 6 -13 8 -13 4 0 -4 -13 0
-30 9 -16 9 -30 13 -30 10 0 -8 -69 23 -83 37 -18 20 -14 42 14 74 25 29 50
44 144 84 96 41 152 50 290 45 72 -2 139 -6 151 -8z m1386 -147 c5 -168 4
-187 -16 -282 -9 -38 -24 -182 -36 -338 -6 -74 -18 -180 -27 -235 -12 -74 -17
-196 -20 -465 -2 -271 -8 -392 -20 -470 -18 -117 -23 -435 -10 -610 5 -66 4
-133 -3 -180 -6 -41 -13 -253 -16 -470 -5 -334 -18 -748 -27 -827 -2 -24 -17
-20 -18 5 0 10 -3 12 -6 5 -7 -19 -30 8 -36 43 -12 68 -20 100 -28 110 -5 6
-6 14 -2 17 3 4 1 7 -5 7 -7 0 -12 5 -12 12 0 6 -13 32 -29 57 -33 51 -53 115
-77 241 -18 100 -55 192 -157 396 -41 82 -80 166 -87 186 -6 21 -15 40 -20 43
-5 3 -18 35 -31 72 -26 80 -48 119 -109 198 -66 84 -80 117 -87 196 -7 80 14
150 52 175 34 22 38 62 8 101 -31 40 -33 104 -5 159 13 26 19 60 19 101 0 70
22 126 56 145 12 6 22 10 22 9 0 -5 51 19 68 32 9 8 22 28 28 45 13 38 -7 77
-70 134 -44 42 -174 131 -217 150 -16 7 -53 30 -83 52 -79 57 -293 164 -361
180 -46 10 -98 -14 -127 -59 l-26 -42 -97 -6 c-114 -6 -162 -26 -211 -87 -18
-22 -64 -61 -103 -87 -113 -76 -167 -136 -221 -246 -53 -105 -63 -169 -31
-192 8 -7 64 -15 123 -18 162 -10 236 -36 301 -106 86 -93 118 -156 161 -323
45 -172 42 -262 -14 -383 -58 -125 -75 -168 -90 -217 -9 -29 -25 -73 -36 -98
-19 -46 -69 -219 -69 -241 0 -11 -55 -155 -85 -224 -8 -16 -28 -61 -45 -100
-17 -38 -37 -103 -44 -145 -8 -41 -21 -91 -29 -110 -8 -19 -25 -82 -37 -140
-12 -58 -24 -114 -26 -125 -8 -34 -24 -119 -30 -148 -2 -16 -13 -54 -24 -85
-10 -31 -21 -70 -24 -87 -4 -16 -9 -41 -11 -55 -28 -140 -85 -527 -90 -610 -4
-58 -15 -152 -25 -210 -10 -58 -21 -143 -24 -190 -3 -47 -8 -96 -11 -110 -3
-14 -8 -40 -11 -58 -5 -24 -11 -32 -21 -28 -8 3 -20 6 -26 6 -7 0 -6 4 3 10
11 7 11 10 2 10 -7 0 -10 5 -7 10 3 6 1 10 -4 10 -6 0 -10 10 -10 22 1 13 -4
102 -10 198 -6 96 -14 220 -17 275 -3 55 -9 132 -14 170 -5 39 -12 115 -16
170 -4 55 -8 111 -9 125 -2 14 -8 90 -15 170 -6 80 -15 172 -21 206 -5 33 -11
103 -15 155 -3 52 -16 175 -29 274 -13 99 -29 230 -35 290 -6 61 -22 191 -35
290 -13 99 -29 230 -35 290 -14 133 -20 182 -27 215 -3 14 -6 153 -8 310 -2
277 -3 287 -28 350 -13 36 -32 112 -42 170 -9 58 -23 132 -30 165 -7 33 -16
89 -20 125 -4 36 -18 117 -30 180 -45 222 -134 747 -160 949 -19 142 -20 247
-2 258 32 20 53 12 97 -39 60 -70 176 -179 249 -237 237 -183 396 -261 691
-341 414 -111 459 -129 505 -202 22 -36 74 -39 108 -5 12 12 24 22 27 22 12 0
127 70 150 91 22 20 139 79 305 154 63 28 179 95 198 114 8 8 29 24 47 35 44
26 212 191 275 270 28 34 63 77 78 94 16 18 42 55 58 84 17 28 36 57 44 63 8
7 12 16 9 21 -3 5 0 9 5 9 6 0 11 7 11 15 0 8 4 15 9 15 5 0 19 15 32 34 23
34 24 34 51 18 26 -15 28 -22 30 -82z m-1252 -2116 c0 -8 -6 -14 -14 -14 -15
0 -23 32 -18 70 4 23 5 23 18 -9 8 -18 14 -40 14 -47z m38 -85 c-3 -8 -7 -3
-11 10 -4 17 -3 21 5 13 5 -5 8 -16 6 -23z m224 -591 c2 -29 -1 -61 -6 -66 -8
-7 -56 31 -56 45 0 40 59 60 62 21z m8947 -136 c97 -50 198 -106 222 -123 15
-10 31 -19 37 -19 5 0 26 -21 45 -47 20 -27 42 -54 49 -62 14 -17 20 -74 7
-65 -5 3 -9 -2 -9 -11 0 -20 -85 -105 -105 -105 -8 0 -15 -4 -15 -10 0 -6 -3
-9 -7 -8 -9 3 -103 -86 -103 -97 0 -8 -26 -35 -35 -35 -4 0 -14 -9 -23 -20
-10 -11 -28 -22 -42 -25 -14 -2 -41 -11 -60 -19 -35 -15 -93 -27 -140 -31 -38
-2 -104 -26 -116 -41 -6 -7 -42 -18 -80 -24 -38 -6 -89 -17 -114 -25 -41 -13
-136 -34 -185 -41 -11 -1 -36 -6 -55 -9 -19 -3 -87 -8 -151 -11 -123 -4 -125
-4 -135 43 -2 13 111 73 138 73 8 0 49 11 89 24 41 14 93 27 116 31 24 4 45
11 49 16 3 5 9 7 14 4 4 -3 13 2 20 10 7 8 16 13 20 10 5 -3 11 -1 15 5 3 5
14 10 23 10 26 1 81 52 84 80 2 14 7 30 11 37 4 6 6 26 5 45 -1 18 2 44 6 57
6 18 5 22 -5 17 -8 -4 -6 -1 3 6 15 11 15 13 0 26 -9 7 -11 11 -4 7 7 -4 12 0
12 9 0 9 5 16 10 16 6 0 10 7 10 15 0 8 5 15 11 15 5 0 7 5 4 10 -3 6 0 10 8
10 13 0 28 21 31 42 1 3 5 10 10 15 5 5 6 3 2 -4 -4 -7 -5 -13 -2 -13 10 0 34
61 30 77 -5 17 10 43 49 84 9 11 17 21 17 24 0 3 0 11 0 18 0 17 95 34 159 30
24 -1 60 -11 80 -21z m-2014 -225 c11 -10 49 -32 85 -49 36 -17 68 -35 71 -41
4 -5 12 -6 18 -3 6 4 11 3 11 -3 0 -12 69 -3 137 17 17 6 33 9 35 7 8 -7 78
-14 78 -7 0 4 10 12 23 18 12 6 37 19 54 28 41 22 171 21 318 0 22 -3 75 -9
119 -14 48 -5 82 -13 87 -21 6 -11 38 -14 128 -14 66 -1 123 -4 127 -8 4 -4
17 -7 28 -8 l21 0 -21 -10 c-11 -6 -25 -23 -30 -38 -10 -25 -14 -27 -55 -23
-24 3 -47 10 -51 16 -5 8 -8 7 -8 -2 0 -7 -5 -10 -10 -7 -6 4 -8 10 -5 14 2 5
-8 8 -23 8 -15 0 -46 3 -70 6 -24 3 -58 1 -75 -4 -18 -6 -84 -12 -147 -15
-156 -7 -220 -17 -220 -35 0 -5 -7 -9 -15 -9 -30 0 -55 -42 -55 -91 0 -48 14
-99 30 -109 5 -3 10 -11 12 -19 2 -7 32 -44 68 -83 64 -69 130 -114 145 -100
5 4 5 1 1 -5 -4 -8 -1 -13 8 -13 9 0 13 -6 10 -14 -4 -10 5 -12 40 -10 25 2
48 -1 51 -7 4 -5 11 -7 16 -4 5 4 9 1 9 -4 0 -6 -4 -11 -9 -11 -10 0 -22 -47
-27 -110 -2 -29 2 -53 13 -69 21 -33 65 -70 82 -71 8 0 27 -14 43 -31 26 -27
30 -39 33 -102 4 -83 -4 -103 -46 -112 -52 -12 -146 64 -205 165 -15 25 -46
63 -69 85 -22 22 -51 56 -63 75 -11 20 -30 47 -42 59 -11 13 -20 30 -20 37 0
15 -31 34 -56 34 -9 0 -43 18 -74 39 -32 22 -60 37 -63 35 -3 -3 -14 -1 -25 5
-16 9 -26 5 -55 -24 -20 -20 -30 -36 -23 -39 6 -2 3 -5 -6 -5 -23 -1 -22 -17
2 -61 10 -19 25 -46 32 -60 7 -14 19 -30 26 -35 7 -6 15 -26 18 -45 7 -44 42
-120 57 -120 5 0 8 -3 4 -6 -3 -3 3 -21 13 -40 23 -40 12 -51 -32 -30 -17 9
-37 16 -45 16 -7 0 -13 4 -13 9 0 5 -10 13 -22 17 -13 4 -25 10 -28 13 -3 4
-33 25 -66 48 -34 23 -73 52 -86 65 -14 13 -39 34 -57 48 -72 54 -97 76 -110
95 -24 33 -111 115 -123 115 -6 0 -9 3 -6 6 4 3 -7 18 -23 33 -16 16 -29 32
-29 36 0 4 -8 14 -17 21 -10 7 -18 16 -19 21 -2 21 -18 43 -31 43 -8 0 -11 5
-7 11 8 14 -43 59 -66 59 -9 0 -20 3 -24 8 -4 4 -15 7 -24 7 -32 1 -60 25 -82
69 -17 36 -20 55 -14 91 6 40 16 57 79 121 39 40 75 71 78 67 4 -3 7 -1 7 5 0
18 112 76 170 88 60 12 75 9 105 -19z m-7185 -27 c60 -60 -53 -190 -165 -190
-56 0 -97 40 -84 82 12 45 37 68 104 99 72 34 117 37 145 9z m8814 -1159 c11
-22 11 -31 0 -58 -8 -18 -18 -33 -22 -33 -5 0 -14 -11 -20 -25 -12 -27 -75
-70 -116 -81 -14 -3 -38 -3 -53 1 -24 6 -26 8 -10 16 9 6 17 17 17 26 0 17 63
105 113 159 34 37 71 35 91 -5z m-8059 -233 c-12 -63 -16 -67 -105 -125 -30
-20 -59 -42 -63 -50 -4 -7 -15 -13 -22 -13 -16 0 -20 12 -8 24 4 3 8 13 9 20
2 17 74 115 99 136 25 21 68 38 82 33 6 -3 10 -14 8 -25z m223 -262 c24 -54
-30 -148 -163 -281 -62 -62 -206 -184 -238 -202 -10 -5 -51 -41 -90 -80 -66
-64 -114 -92 -137 -78 -16 10 9 59 55 110 56 63 80 92 150 180 22 28 55 68 75
90 19 22 50 60 69 83 19 24 76 76 126 116 78 64 102 78 136 85 3 0 11 -10 17
-23z m225 -1976 c6 -16 15 -30 19 -30 11 0 -2 -53 -21 -83 l-18 -28 -11 28
c-15 37 -17 71 -8 111 9 40 24 41 39 2z"/>
<path d="M14920 15470 c-9 -6 -10 -10 -3 -10 6 0 15 5 18 10 8 12 4 12 -15 0z"/>
</g>
</svg>
